<?xml version="1.0" standalone="no"?>
<!DOCTYPE svg PUBLIC "-//W3C//DTD SVG 20010904//EN"
 "http://www.w3.org/TR/2001/REC-SVG-20010904/DTD/svg10.dtd">
<svg version="1.0" xmlns="http://www.w3.org/2000/svg"
 width="256.000000pt" height="256.000000pt" viewBox="0 0 256.000000 256.000000"
 preserveAspectRatio="xMidYMid meet">

<g transform="translate(0.000000,256.000000) scale(0.100000,-0.100000)"
fill="#000000" stroke="none">
<path d="M1737 2044 c-11 -11 -8 -44 3 -44 15 0 24 30 13 41 -5 5 -12 6 -16 3z"/>
<path d="M1484 1795 c-18 -13 -18 -14 5 -8 35 9 22 -20 -15 -30 -16 -5 -39
-22 -51 -37 l-22 -27 37 13 c53 19 57 18 71 -22 12 -34 13 -35 37 -20 34 23
48 20 67 -16 l16 -33 0 33 c1 19 -6 49 -15 68 l-16 34 -28 -20 c-16 -11 -30
-20 -33 -20 -2 0 -7 23 -11 50 -7 54 -12 58 -42 35z"/>
<path d="M1265 1555 c-17 -13 -74 -39 -129 -60 -116 -43 -162 -70 -205 -122
-35 -43 -41 -36 -10 13 39 63 -7 27 -82 -65 -39 -47 -86 -94 -105 -104 -19
-10 -47 -28 -61 -40 -80 -68 -97 -86 -90 -94 5 -4 43 -8 85 -8 56 0 81 4 97
17 12 10 26 14 30 10 4 -4 25 13 46 38 31 35 39 41 39 25 0 -22 -28 -68 -52
-88 -16 -12 -48 -137 -48 -185 0 -13 -8 -31 -17 -39 -10 -8 -12 -12 -5 -8 44
22 220 80 292 95 69 14 80 19 58 25 -28 7 -43 40 -31 72 4 10 26 40 50 68 24
27 51 69 59 92 l17 43 71 0 71 0 12 -38 c7 -22 17 -70 23 -108 6 -37 16 -74
22 -81 6 -7 29 -13 52 -13 l41 1 -30 24 c-26 21 -29 30 -29 77 0 65 12 128 24
128 5 0 12 -26 15 -57 11 -90 33 -175 47 -184 7 -5 23 -9 35 -9 12 0 28 -3 37
-6 28 -11 18 24 -11 38 -27 13 -28 17 -31 93 -2 74 16 176 43 239 8 18 7 18
-17 2 l-26 -17 0 58 c0 32 -7 74 -15 93 l-15 35 -1 -68 c-1 -94 -40 -175 -63
-133 -5 9 -14 13 -20 10 -7 -4 -8 -2 -4 4 4 6 0 22 -8 34 -8 13 -24 50 -35 82
-11 32 -27 66 -34 75 -8 9 -17 23 -20 32 -9 26 -40 28 -72 4z m-251 -478 c-15
-31 -15 -36 0 -65 9 -17 16 -37 16 -44 0 -11 -158 -69 -187 -69 -18 0 -12 49
10 91 19 35 37 52 93 82 38 21 72 38 76 38 4 0 1 -15 -8 -33z"/>
<path d="M1054 666 c-43 -19 -64 -53 -64 -102 0 -131 183 -154 219 -28 25 87
-71 168 -155 130z m90 -47 c51 -40 23 -129 -41 -129 -65 0 -95 79 -48 125 30
30 54 31 89 4z"/>
<path d="M653 657 c3 -9 11 -35 17 -59 29 -114 41 -139 63 -136 17 2 26 17 40
66 10 34 22 60 26 57 5 -2 16 -32 25 -65 15 -53 20 -61 39 -58 17 2 26 18 44
76 37 122 38 132 15 132 -21 0 -35 -29 -48 -102 -3 -21 -10 -36 -14 -33 -4 3
-16 34 -25 70 -25 91 -46 89 -76 -5 -13 -38 -24 -68 -26 -66 -2 2 -12 32 -21
67 -14 54 -21 65 -41 67 -18 3 -22 0 -18 -11z"/>
<path d="M1280 565 l0 -105 70 0 c56 0 70 3 70 15 0 11 -12 15 -50 15 l-50 0
0 90 c0 83 -1 90 -20 90 -19 0 -20 -7 -20 -105z"/>
<path d="M1480 565 c0 -98 1 -105 20 -105 17 0 20 7 20 39 l0 40 53 3 c38 2
52 7 52 18 0 11 -14 16 -52 18 -49 3 -53 5 -53 28 0 23 3 24 55 24 48 0 55 2
55 20 0 18 -7 20 -75 20 l-75 0 0 -105z"/>
<path d="M1728 525 c-53 -68 -51 -65 -26 -65 15 0 31 12 46 35 12 19 26 35 31
35 5 0 19 -16 31 -35 13 -20 30 -35 41 -35 26 0 24 5 -16 55 -43 52 -74 55
-107 10z"/>
</g>
</svg>
